<?xml version="1.0" encoding="UTF-8" standalone="no"?><!DOCTYPE svg PUBLIC "-//W3C//DTD SVG 1.1//EN" "http://www.w3.org/Graphics/SVG/1.1/DTD/svg11.dtd"><svg width="100%" height="100%" viewBox="0 0 70 100" version="1.1" xmlns="http://www.w3.org/2000/svg" xmlns:xlink="http://www.w3.org/1999/xlink" xml:space="preserve" xmlns:serif="http://www.serif.com/" style="fill-rule:evenodd;clip-rule:evenodd;stroke-linejoin:round;stroke-miterlimit:2;"><path d="M39.015,58.676l17.18,0l0,19.88c0,11.762 -9.535,21.297 -21.296,21.297l-0.004,0c-11.762,0 -21.296,-9.535 -21.296,-21.297l0,-19.88l17.18,0l0,8.236l-8.945,0l0,11.644c0,7.214 5.848,13.062 13.061,13.062l0.004,0c7.213,0 13.061,-5.848 13.061,-13.062l0,-11.644l-8.945,0l0,-8.236Z" style="fill:#40bf4f;"/><path d="M19.651,24.29c-0.13,-0.805 -0.196,-1.626 -0.196,-2.453c0,-4.095 1.626,-8.021 4.522,-10.917c5.46,-5.46 10.92,-10.92 10.92,-10.92c0,0 5.46,5.46 10.92,10.92c2.895,2.896 4.522,6.822 4.522,10.917c0,0.827 -0.066,1.648 -0.196,2.453c1.388,-0.403 2.838,-0.614 4.31,-0.614l15.444,0l0,15.444c0,4.095 -1.627,8.022 -4.522,10.917c-2.895,2.895 -6.822,4.522 -10.917,4.522l-15.443,0l0,-15.002l-4.118,4.117l-4.118,-4.117l0,15.002l-15.443,0c-1.615,-0.005 -3.223,-0.254 -4.76,-0.752c-1.918,-0.622 -3.709,-1.621 -5.244,-2.928c-2.098,-1.784 -3.697,-4.127 -4.593,-6.731c-0.557,-1.617 -0.837,-3.319 -0.842,-5.028l0,-15.444l15.443,0c1.472,0 2.923,0.211 4.311,0.614Z" style="fill:#40bf4f;"/></svg>